# xmcd CD database file generated by Grip 2.94
# 
# Track frame offsets:
#       183
#       30700
#       49903
#       59373
#       78580
#       78880
#       92560
#       116398
#       135553
# 
# Disc length: 2167 seconds
# 
# Revision: 3
# Processed by: cddbd v1.4b41PL1 Copyright (c) Steve Scherf et al.
# Submitted via: Grip 2.94
# 
DISCID=6a087509
DTITLE=Hot Tuna - Splashdown
DYEAR=1900
DGENRE=
TTITLE0=Death Don't Have No Mercy
TTITLE1=I Am The Light
TTITLE2=Embryonic Journey
TTITLE3=Police Dog Blues
TTITLE4=Splash Down
TTITLE5=Keep Your Lamps Trimmed and Burning
TTITLE6=I Know You Rider
TTITLE7=Keep On Truckin'
TTITLE8=Candyman
EXTD=
EXTT0=
EXTT1=
EXTT2=
EXTT3=
EXTT4=
EXTT5=
EXTT6=
EXTT7=
EXTT8=
PLAYORDER=
